<svg width="97" height="443" viewBox="0 0 97 443" fill="none" xmlns="http://www.w3.org/2000/svg">
<path d="M0.456672 78.1917C9.13247 78.1917 23.7443 78.1917 38.8128 78.1917C38.8128 70.8857 38.8128 62.6666 39.2695 59.0136C42.4658 58.557 52.0549 58.557 56.1644 59.0136C56.1644 63.5798 56.1644 71.3424 56.1644 78.1917C73.9727 78.1917 89.9544 78.1917 94.9772 78.1917C95.4338 82.3013 95.4338 87.7807 94.9772 92.3469C85.3882 92.8035 13.6987 92.8035 0.913293 92.3469C5.07236e-05 88.2373 5.07236e-05 82.3013 0.456672 78.1917ZM6.39274 0.566099C16.895 0.109478 76.7124 0.109478 87.6713 0.566099C88.1279 4.67569 88.1279 11.525 87.6713 15.6346C79.9087 15.6346 31.5069 15.6346 23.2877 15.6346C23.2877 20.6574 23.2877 33.4428 23.2877 38.009C31.9635 38.009 81.7352 38.009 89.4978 38.009C89.9544 42.1186 89.9544 49.4245 89.4978 52.6209C80.3653 53.0775 16.895 53.0775 5.93612 52.6209C5.4795 39.8355 5.93612 12.8949 6.39274 0.566099Z" fill="white"/>
<path d="M0.342466 345.169C10.8448 344.712 44.1781 344.712 55.137 345.169C55.5936 349.279 55.5936 354.758 55.137 358.868C47.3744 358.868 25 358.868 16.7809 358.868C16.7809 363.89 16.7809 371.653 16.7809 376.219C25.4567 376.219 51.484 376.219 59.7032 376.219C60.1598 380.329 60.1598 386.721 59.7032 389.918C50.5708 390.374 10.3881 390.374 0.342466 389.918C-0.114155 377.589 -0.114155 357.954 0.342466 345.169ZM4.45206 399.963C11.3014 399.507 82.9909 399.507 85.7306 399.963C86.1873 408.639 86.1873 434.21 85.7306 442.429C78.4247 442.886 12.6712 443.342 4.45206 442.429C3.53882 430.1 3.99544 410.922 4.45206 399.963ZM69.7489 428.731C70.2055 425.534 70.2055 417.772 69.7489 414.119C63.8128 413.662 27.7397 414.119 20.4338 414.119C19.9772 417.315 19.9772 424.621 20.4338 428.731C25.4566 428.731 65.1827 428.731 69.7489 428.731ZM69.2923 343.342C72.4886 342.886 81.621 342.886 85.7306 343.342C85.7306 347.452 85.7306 353.388 85.7306 359.781C89.8402 359.781 93.0366 359.781 95.3197 359.781C95.7763 363.89 95.7763 370.283 95.3197 374.393C93.4932 374.393 90.2969 374.849 85.7306 374.849C85.7306 383.068 85.7306 390.374 85.274 394.484C82.0777 394.941 72.9452 394.941 68.8356 394.484C68.8356 385.808 68.8357 351.562 69.2923 343.342Z" fill="white"/>
<path d="M0.299936 309.968C8.97574 309.968 23.5876 309.968 39.1127 309.968C39.1127 302.662 39.1127 294.443 39.1127 290.79C42.3091 290.333 51.8981 290.333 56.0077 290.79C56.0077 295.356 56.0077 303.119 56.0077 309.968C73.8159 309.968 89.7977 309.968 94.8205 309.968C95.2771 314.078 95.2771 319.557 94.8205 324.123C85.2315 324.58 13.5419 324.58 0.75655 324.123C-0.156692 320.014 -0.156685 314.078 0.299936 309.968ZM6.23601 232.342C16.7383 231.886 76.5557 231.886 87.5146 232.342C87.9712 236.452 87.9712 243.301 87.5146 247.411C79.752 247.411 31.3502 247.411 23.131 247.411C23.131 252.434 23.131 265.219 23.131 269.785C31.8068 269.785 81.5785 269.785 89.341 269.785C89.7977 273.895 89.7977 281.201 89.341 284.397C80.2086 284.854 16.7383 284.854 5.77939 284.397C5.77939 271.612 5.77939 244.671 6.23601 232.342Z" fill="white"/>
<path d="M0.684932 116.169C11.1872 115.712 44.5205 115.712 55.4794 116.169C55.9361 120.279 55.9361 125.758 55.4794 129.868C47.7169 129.868 25.3425 129.868 17.1233 129.868C17.1233 134.89 17.1233 142.653 17.1233 147.219C25.7991 147.219 51.8265 147.219 60.0456 147.219C60.5023 151.329 60.5023 157.721 60.0456 160.918C50.9132 161.374 10.274 161.374 0.684932 160.918C-0.22831 148.589 -0.22831 128.954 0.684932 116.169ZM4.3379 170.963C11.1872 170.507 82.8767 170.507 85.6164 170.963C86.0731 179.639 86.0731 205.21 85.6164 213.429C78.3105 213.886 12.5571 214.342 4.3379 213.429C3.88127 201.1 3.88127 181.922 4.3379 170.963ZM69.6347 199.731C69.6347 196.534 69.6347 188.772 69.6347 185.119C63.6986 184.662 27.6256 185.119 20.3196 185.119C20.3196 188.315 19.863 195.621 20.3196 199.731C25.3425 199.731 65.0685 199.731 69.6347 199.731ZM69.6347 114.342C72.831 113.886 81.9635 113.886 86.073 114.342C86.073 118.452 86.073 124.388 86.073 130.781C90.1826 130.781 93.379 130.781 95.6621 130.781C96.1187 134.89 96.1187 141.283 95.6621 145.393C93.8356 145.393 90.6393 145.849 86.073 145.849C86.073 154.068 86.073 161.374 86.073 165.484C82.8767 165.941 73.7443 165.941 69.6347 165.484C69.1781 156.808 69.1781 122.562 69.6347 114.342Z" fill="white"/>
</svg>
